<svg width="36" height="36" viewBox="0 0 36 36" fill="none" xmlns="http://www.w3.org/2000/svg">
<mask id="path-2-inside-1_503_2125" fill="white">
<path d="M0 8C0 3.58172 3.58172 0 8 0H28C32.4183 0 36 3.58172 36 8V28C36 32.4183 32.4183 36 28 36H8C3.58172 36 0 32.4183 0 28V8Z"/>
</mask>
<path 
  d="M0 8C0 3.58172 3.58172 0 8 0H28C32.4183 0 36 3.58172 36 8V28C36 32.4183 32.4183 36 28 36H8C3.58172 36 0 32.4183 0 28V8Z" 
  fill="var(--icon-bg, currentColor)"
/>
<path 
  d="M8 0V2H28V0V-2H8V0ZM36 8H34V28H36H38V8H36ZM28 36V34H8V36V38H28V36ZM0 28H2V8H0H-2V28H0ZM8 36V34C4.68629 34 2 31.3137 2 28H0H-2C-2 33.5228 2.47715 38 8 38V36ZM36 28H34C34 31.3137 31.3137 34 28 34V36V38C33.5228 38 38 33.5228 38 28H36ZM28 0V2C31.3137 2 34 4.68629 34 8H36H38C38 2.47715 33.5228 -2 28 -2V0ZM8 0V-2C2.47715 -2 -2 2.47715 -2 8H0H2C2 4.68629 4.68629 2 8 2V0Z" 
  fill="var(--icon-border, currentColor)" 
  mask="url(#path-2-inside-1_503_2125)"
/>
<path 
  d="M17.0512 10.8977H13.294C11.7909 10.8977 11.0394 10.8977 10.4653 11.1902C9.96036 11.4475 9.54981 11.858 9.29251 12.363C9 12.9371 9 13.6886 9 15.1916V22.7061C9 24.209 9 24.9606 9.29251 25.5347C9.54981 26.0396 9.96036 26.4502 10.4653 26.7075C11.0394 27 11.7909 27 13.294 27H20.8084C22.3114 27 23.0629 27 23.637 26.7075C24.142 26.4502 24.5525 26.0396 24.8098 25.5347C25.1023 24.9606 25.1023 24.209 25.1023 22.7061V18.9488M14.3674 21.6326H15.8654C16.303 21.6326 16.5219 21.6326 16.7278 21.5831C16.9103 21.5393 17.0848 21.467 17.2449 21.3689C17.4255 21.2583 17.5802 21.1035 17.8897 20.7941L26.4442 12.2395C27.1853 11.4985 27.1853 10.2969 26.4442 9.55581C25.7031 8.81473 24.5015 8.81472 23.7605 9.55581L15.2059 18.1104C14.8964 18.4198 14.7417 18.5746 14.6311 18.7551C14.533 18.9152 14.4607 19.0897 14.4169 19.2722C14.3674 19.4782 14.3674 19.697 14.3674 20.1346V21.6326Z" 
  stroke="var(--icon-stroke, currentColor)" 
  stroke-width="2" 
  stroke-linecap="round" 
  stroke-linejoin="round"
/>
</svg>