<svg width="31" height="31" viewBox="0 0 31 31" fill="none" xmlns="http://www.w3.org/2000/svg">
<path d="M11.3 29.5V18.4493C11.3 17.6129 11.3 17.1948 11.4526 16.8754C11.5868 16.5943 11.801 16.366 12.0644 16.2228C12.3639 16.06 12.756 16.06 13.54 16.06H17.46C18.2441 16.06 18.6361 16.06 18.9356 16.2228C19.1991 16.366 19.4131 16.5943 19.5474 16.8754C19.7 17.1948 19.7 17.6129 19.7 18.4493V29.5M1.5 12.3267L14.156 2.20187C14.638 1.8163 14.879 1.62351 15.1436 1.54919C15.3772 1.4836 15.6228 1.4836 15.8564 1.5492C16.121 1.62351 16.362 1.8163 16.844 2.20187L29.5 12.3267M4.3 10.0867V24.7213C4.3 26.394 4.3 27.2304 4.60519 27.8693C4.87364 28.4312 5.30198 28.8882 5.82883 29.1745C6.42779 29.5 7.21186 29.5 8.78 29.5H22.22C23.7881 29.5 24.5723 29.5 25.1712 29.1745C25.698 28.8882 26.1264 28.4312 26.3948 27.8693C26.7 27.2304 26.7 26.394 26.7 24.7213V10.0867L18.188 3.27707C17.2241 2.50592 16.7421 2.12036 16.2127 1.97173C15.7456 1.84054 15.2544 1.84054 14.7873 1.97173C14.2579 2.12036 13.7759 2.50592 12.812 3.27707L4.3 10.0867Z" stroke="#10C5E1" stroke-width="3" stroke-linecap="round" stroke-linejoin="round"/>
</svg>
