<svg width="136" height="136" viewBox="0 0 156 156" fill="none" xmlns="http://www.w3.org/2000/svg">
<mask id="path-1-inside-1_503_2123" fill="white">
<path d="M0 78C0 34.9218 34.9218 0 78 0C121.078 0 156 34.9218 156 78C156 121.078 121.078 156 78 156C34.9218 156 0 121.078 0 78Z"/>
</mask>
<path d="M0 78C0 34.9218 34.9218 0 78 0C121.078 0 156 34.9218 156 78C156 121.078 121.078 156 78 156C34.9218 156 0 121.078 0 78Z" fill="#1C1C1F"/>
<path d="M78 156V152C37.1309 152 4 118.869 4 78H0H-4C-4 123.287 32.7127 160 78 160V156ZM156 78H152C152 118.869 118.869 152 78 152V156V160C123.287 160 160 123.287 160 78H156ZM78 0V4C118.869 4 152 37.1309 152 78H156H160C160 32.7127 123.287 -4 78 -4V0ZM78 0V-4C32.7127 -4 -4 32.7127 -4 78H0H4C4 37.1309 37.1309 4 78 4V0Z" fill="#10C5E1" mask="url(#path-1-inside-1_503_2123)"/>
<path d="M108 113C108 107.573 108 104.859 107.354 102.651C105.9 97.6797 102.148 93.7889 97.3541 92.2808C95.2249 91.6111 92.6085 91.6111 87.375 91.6111H68.625C63.3916 91.6111 60.7749 91.6111 58.6457 92.2808C53.8517 93.7889 50.1001 97.6797 48.6459 102.651C48 104.859 48 107.573 48 113M94.875 60.5C94.875 70.165 87.3199 78 78 78C68.6802 78 61.125 70.165 61.125 60.5C61.125 50.835 68.6802 43 78 43C87.3199 43 94.875 50.835 94.875 60.5Z" 
    stroke="#10C5E1" stroke-width="4" stroke-linecap="round" stroke-linejoin="round"/>
</svg>
